<?xml version="1.0" encoding="utf-8"?>
<!-- Generator: Adobe Illustrator 24.2.1, SVG Export Plug-In . SVG Version: 6.00 Build 0)  -->
<svg version="1.1" id="Layer_3" xmlns="http://www.w3.org/2000/svg" xmlns:xlink="http://www.w3.org/1999/xlink" x="0px" y="0px"
	 viewBox="0 0 58 58" style="enable-background:new 0 0 58 58;" xml:space="preserve">
<style type="text/css">
	.st0{fill:none;}
	.st1{fill:#23669D;}
</style>
<g>
	<path class="st0" d="M27.5,52.3l18.3-10.9c0,0,0.1-0.1,0.1-0.3c0,0,0-21,0-21L27.5,30.1V52.3z"/>
	<path class="st0" d="M25.4,4.3h-0.1h-0.1L6.2,15.6c0.1,0,0.1,0,0.3,0.1l18.7,10.7l19.5-10.7L25.4,4.3z"/>
	<path class="st1" d="M48,12.8L27.7,0.7C27,0.3,26.1,0,25.2,0s-1.7,0.3-2.4,0.7L2.7,12.8c-1.4,0.9-2.3,2.3-2.3,4V41
		c0,1.7,0.9,3.1,2.3,4L23,57.1c0.9,0.6,1.7,0.7,2.4,0.7c1,0,1.8-0.4,2.3-0.7L47.8,45c1.4-0.9,2.3-2.3,2.3-4V16.8
		C50.1,15.2,49.3,13.6,48,12.8z M25.2,26.4L6.5,15.8c-0.1-0.1-0.1-0.1-0.3-0.1L25.1,4.3h0.1h0.1l19.3,11.5L25.2,26.4z M46,41
		c0,0.1-0.1,0.3-0.1,0.3L27.5,52.3V30.1L46,20C46,20,46,41,46,41z"/>
</g>
</svg>
