<?xml version="1.0" encoding="utf-8"?>
<!-- Generator: Adobe Illustrator 24.2.1, SVG Export Plug-In . SVG Version: 6.00 Build 0)  -->
<svg version="1.1" id="Layer_1" xmlns="http://www.w3.org/2000/svg" xmlns:xlink="http://www.w3.org/1999/xlink" x="0px" y="0px"
	 viewBox="0 0 50 50" style="enable-background:new 0 0 50 50;" xml:space="preserve">
<style type="text/css">
	.st0{fill:#486CB4;}
	.st1{fill:#FFFFFF;}
</style>
<g>
	<path class="st0" d="M25.7,30.3c-0.4-0.2-0.8-0.1-1,0.2l-2.5,4.6c1,0.3,2.1,0.5,3.2,0.5c0.8,0,1.5-0.1,2.2-0.3h0
		c0.3-0.1,0.6-0.2,0.9-0.3L26,30.6C25.9,30.5,25.8,30.4,25.7,30.3z"/>
	<path class="st0" d="M21,28.1L15.9,29h0c0.8,2.1,2.2,3.9,4,5l2-4.7c0.1-0.2,0.1-0.3,0-0.5C21.8,28.4,21.4,28.1,21,28.1z"/>
	<path class="st0" d="M29.2,28.2c-0.4,0.2-0.5,0.6-0.4,1l2,4.8c1.2-0.8,2.3-1.8,3.1-3.1v0c0.4-0.6,0.7-1.2,0.9-2l-5.1-0.9
		C29.5,28.1,29.3,28.1,29.2,28.2z"/>
	<path class="st0" d="M22.9,21.5c0.5,0,0.8-0.4,0.9-0.8l0.3-5.1c-0.4,0.1-0.7,0.1-1,0.2v0c-1.8,0.4-3.5,1.3-4.8,2.6l4.3,3
		C22.7,21.5,22.8,21.5,22.9,21.5z"/>
	<path class="st0" d="M20.7,24.9c0.3-0.4,0.3-0.9-0.1-1.2l-3.8-3.4c-1.2,1.9-1.6,4.1-1.4,6.3l5-1.4C20.4,25.1,20.6,25,20.7,24.9z"/>
	<polygon class="st0" points="23.9,26.7 25.3,27.3 26.8,26.7 26.8,26.7 27.1,25.2 26.1,24 24.5,24 23.6,25.2 	"/>
	<path class="st0" d="M48.5,29.6l-4-17.4c-0.2-0.9-0.8-1.7-1.7-2.1L26.7,2.4c-0.4-0.2-0.9-0.3-1.3-0.3l0,0c-0.4,0-0.9,0.1-1.3,0.3
		L7.8,10.2c-0.8,0.4-1.4,1.2-1.7,2.1l-4,17.4c-0.2,0.9,0,1.9,0.6,2.6l11.2,13.9c0.6,0.7,1.5,1.2,2.4,1.2h18c0.9,0,1.8-0.4,2.4-1.2
		l11.2-13.9C48.5,31.5,48.7,30.6,48.5,29.6z M41.5,30c-0.1,0-0.2,0-0.3,0c0,0-0.1,0-0.1,0c-0.1,0-0.1,0-0.2,0
		c-0.2-0.1-0.4-0.1-0.6-0.2c-0.1,0-0.2-0.1-0.3-0.1h0c-0.6-0.2-1.2-0.4-1.7-0.5h-0.1c-0.2,0-0.3,0.1-0.4,0.2c0,0,0,0-0.1,0l-0.4-0.1
		c-0.3,1-0.8,2-1.3,2.9c-1.1,1.7-2.5,3.1-4.2,4.1l0.2,0.4c0,0,0,0,0,0.1c0,0.2-0.1,0.3,0,0.5c0.2,0.5,0.5,1,0.8,1.5v0
		c0.1,0.1,0.1,0.2,0.2,0.3c0.1,0.2,0.3,0.3,0.4,0.5c0,0,0.1,0.1,0.1,0.2c0,0,0,0,0,0.1c0.1,0.3,0.1,0.5,0.1,0.8
		c-0.1,0.3-0.3,0.4-0.5,0.6c-0.1,0.1-0.3,0.1-0.4,0.1c-0.4,0-0.8-0.2-1-0.6c0,0,0,0,0-0.1c0-0.1-0.1-0.1-0.1-0.2
		c-0.1-0.2-0.1-0.4-0.2-0.6l-0.1-0.3v0c-0.2-0.6-0.4-1.2-0.7-1.6c-0.1-0.2-0.3-0.3-0.4-0.3c0,0,0,0-0.1,0L30,37.2
		c-0.5,0.2-1.1,0.4-1.7,0.5c-0.9,0.2-1.9,0.3-2.8,0.3c-1.5,0-3.1-0.3-4.5-0.8l-0.2,0.4c0,0,0,0-0.1,0c-0.1,0.1-0.3,0.1-0.4,0.3
		c-0.3,0.4-0.4,1-0.7,1.6l-0.1,0.3c-0.1,0.2-0.1,0.4-0.2,0.6c0,0-0.1,0.1-0.1,0.2c0,0,0,0,0,0.1c-0.2,0.4-0.6,0.6-1,0.6
		c-0.1,0-0.3,0-0.4-0.1c-0.5-0.2-0.7-0.8-0.4-1.4c0,0,0,0,0-0.1c0-0.1,0.1-0.1,0.1-0.2c0.1-0.2,0.2-0.4,0.4-0.5
		c0.1-0.1,0.1-0.2,0.2-0.3v0c0.4-0.5,0.6-1,0.8-1.5c0.1-0.2,0-0.4-0.1-0.5c0,0,0,0,0-0.1l0.2-0.4c-0.5-0.3-0.9-0.6-1.4-0.9
		c-2-1.5-3.4-3.6-4.2-6l-0.4,0.1c0,0,0,0-0.1,0c-0.1-0.1-0.2-0.2-0.4-0.2h-0.1c-0.5,0.1-1.1,0.3-1.7,0.5h0c-0.1,0-0.2,0.1-0.3,0.1
		c-0.2,0.1-0.4,0.2-0.6,0.2c-0.1,0-0.1,0-0.2,0c0,0,0,0-0.1,0c-0.1,0-0.2,0-0.3,0c-0.5,0-0.9-0.3-1-0.7c-0.1-0.5,0.3-1.1,0.8-1.2
		c0,0,0.1,0,0.1,0c0.1,0,0.1,0,0.2,0c0.2,0,0.4-0.1,0.6-0.1c0.1,0,0.2,0,0.3,0h0c0.7-0.1,1.2-0.1,1.7-0.3c0.2-0.1,0.3-0.2,0.4-0.4
		c0,0,0,0,0-0.1l0.4-0.1c-0.4-2.9,0.2-5.9,1.8-8.5c0-0.1,0.1-0.2,0.2-0.3l-0.3-0.3v-0.1c0-0.2,0-0.3-0.2-0.5c-0.4-0.4-0.9-0.6-1.4-1
		c-0.1-0.1-0.2-0.1-0.3-0.2c-0.2-0.1-0.4-0.2-0.5-0.3c-0.1,0-0.1-0.1-0.2-0.1c0,0,0,0-0.1,0c-0.4-0.4-0.5-1-0.2-1.4
		c0.2-0.2,0.4-0.4,0.7-0.4c0.3,0,0.5,0.1,0.7,0.3c0,0,0,0,0.1,0.1c0.1,0.1,0.1,0.1,0.2,0.1c0.2,0.2,0.3,0.3,0.4,0.4
		c0.1,0.1,0.2,0.2,0.2,0.2c0.4,0.5,0.9,0.9,1.3,1.2c0.1,0.1,0.2,0.1,0.3,0.1c0.1,0,0.1,0,0.2,0h0.1l0.3,0.2c1.7-1.8,3.9-3,6.3-3.6
		c0.6-0.1,1.2-0.2,1.7-0.3l0-0.4l0.1-0.1c0.1-0.1,0.2-0.2,0.3-0.4c0.1-0.5,0-1.1-0.1-1.7v0c0-0.1,0-0.2-0.1-0.3
		c-0.1-0.2-0.1-0.4-0.1-0.6V9.1c0-0.3,0.1-0.5,0.3-0.7C24.9,8.2,25.1,8,25.4,8c0.5,0,1,0.5,1,1.1v0.3c0,0.2-0.1,0.4-0.1,0.6
		c0,0.1-0.1,0.2-0.1,0.3v0c-0.1,0.6-0.1,1.2-0.1,1.7c0,0.2,0.2,0.3,0.3,0.4l0.1,0.1l0,0.4c2.4,0.2,4.8,1.1,6.7,2.7
		c0.4,0.4,0.9,0.8,1.3,1.2l0.4-0.3h0.1c0.1,0,0.1,0,0.2,0c0.1,0,0.2,0,0.3-0.1c0.4-0.3,0.8-0.7,1.3-1.2c0.1-0.1,0.2-0.2,0.2-0.2
		c0.1-0.2,0.3-0.3,0.4-0.4c0.1,0,0.1-0.1,0.2-0.1l0.1-0.1c0.2-0.2,0.4-0.3,0.7-0.3c0.3,0,0.6,0.1,0.7,0.4c0.3,0.4,0.2,1.1-0.2,1.4
		c0,0,0,0-0.1,0.1c-0.1,0.1-0.1,0.1-0.2,0.1c-0.2,0.1-0.4,0.2-0.5,0.3c-0.1,0.1-0.2,0.1-0.3,0.2c-0.6,0.4-1.1,0.6-1.4,1
		c-0.1,0.2-0.2,0.3-0.2,0.5v0.1l-0.3,0.3c0.8,1.3,1.4,2.7,1.8,4.2c0.3,1.5,0.4,3,0.2,4.5l0.4,0.1c0,0,0,0,0,0.1
		c0.1,0.1,0.1,0.3,0.4,0.4c0.5,0.2,1.1,0.2,1.7,0.3h0c0.1,0,0.2,0,0.3,0c0.2,0,0.4,0,0.6,0.1c0.1,0,0.1,0,0.2,0c0,0,0,0,0.1,0h0
		c0,0,0,0,0,0v0c0.6,0.2,0.9,0.7,0.9,1.1C42.4,29.7,42,30,41.5,30z"/>
	<path class="st0" d="M27,21.2c0.3,0.4,0.8,0.4,1.1,0.2l4.2-3c-1.6-1.6-3.6-2.5-5.8-2.8l0.3,5.2C26.9,20.9,26.9,21.1,27,21.2z"/>
	<path class="st0" d="M35.1,23.3c-0.3-1.1-0.7-2.1-1.2-3L30,23.8c-0.1,0.1-0.2,0.2-0.2,0.4c-0.1,0.4,0.2,0.9,0.6,1l4.9,1.4
		C35.4,25.5,35.4,24.4,35.1,23.3L35.1,23.3z"/>
	<path class="st1" d="M49.9,29.3l-4-17.4c-0.3-1.4-1.2-2.5-2.5-3.1L27.3,1.1c-0.6-0.3-1.3-0.4-2-0.4c-0.7,0-1.3,0.2-2,0.4L7.2,8.8
		C5.9,9.5,5,10.6,4.7,12l-4,17.4c-0.3,1.4,0,2.8,0.9,3.9l11.2,13.9c0.9,1.1,2.2,1.7,3.6,1.7h18c1.4,0,2.7-0.6,3.6-1.7L49,33.2
		C49.9,32.2,50.2,30.7,49.9,29.3z M34.3,47.3h-18c-0.9,0-1.8-0.4-2.4-1.2L2.7,32.2c-0.6-0.7-0.8-1.7-0.6-2.6l4-17.4
		c0.2-0.9,0.8-1.7,1.7-2.1L24,2.4c0.4-0.2,0.9-0.3,1.3-0.3l0,0c0.4,0,0.9,0.1,1.3,0.3l16.2,7.7c0.8,0.4,1.5,1.2,1.7,2.1l4,17.4
		c0.2,0.9,0,1.9-0.6,2.6L36.7,46.2C36.1,46.9,35.2,47.3,34.3,47.3z"/>
	<path class="st1" d="M41.6,28.2L41.6,28.2C41.6,28.2,41.5,28.2,41.6,28.2L41.6,28.2C41.5,28.2,41.5,28.2,41.6,28.2
		c-0.2,0-0.2-0.1-0.3-0.1c-0.2,0-0.4-0.1-0.6-0.1c-0.1,0-0.2,0-0.3,0h0c-0.7-0.1-1.2-0.1-1.7-0.3c-0.2-0.1-0.3-0.2-0.4-0.4
		c0,0,0,0,0-0.1l-0.4-0.1c0.2-1.5,0.1-3-0.2-4.5c-0.3-1.5-1-2.9-1.8-4.2l0.3-0.3v-0.1c0-0.2,0-0.3,0.2-0.5c0.4-0.4,0.9-0.6,1.4-1
		c0.1-0.1,0.2-0.1,0.3-0.2c0.2-0.1,0.4-0.2,0.5-0.3c0,0,0.1-0.1,0.2-0.1c0,0,0.1,0,0.1-0.1c0.4-0.4,0.5-1,0.2-1.4
		c-0.2-0.2-0.4-0.4-0.7-0.4c-0.3,0-0.5,0.1-0.7,0.3l-0.1,0.1c-0.1,0-0.1,0.1-0.2,0.1c-0.2,0.2-0.3,0.3-0.4,0.4
		c-0.1,0.1-0.1,0.2-0.2,0.2c-0.4,0.5-0.9,0.9-1.3,1.2c-0.1,0.1-0.2,0.1-0.3,0.1c-0.1,0-0.1,0-0.2,0h-0.1l-0.4,0.3
		c-0.4-0.4-0.9-0.8-1.3-1.2c-1.9-1.5-4.3-2.4-6.7-2.7l0-0.4l-0.1-0.1c-0.1-0.1-0.2-0.2-0.3-0.4c0-0.5,0-1.1,0.1-1.7v0
		c0-0.1,0-0.2,0.1-0.3c0-0.2,0.1-0.4,0.1-0.6V9.1c0-0.6-0.4-1.1-1-1.1c-0.3,0-0.5,0.1-0.7,0.3c-0.2,0.2-0.3,0.4-0.3,0.7v0.3
		c0,0.2,0,0.4,0.1,0.6c0,0.1,0,0.2,0.1,0.3v0c0.1,0.6,0.2,1.2,0.1,1.7c0,0.2-0.2,0.3-0.3,0.4l-0.1,0.1l0,0.4
		c-0.6,0.1-1.2,0.1-1.7,0.3c-2.5,0.5-4.6,1.8-6.3,3.6l-0.3-0.2h-0.1c-0.1,0-0.1,0-0.2,0c-0.1,0-0.2,0-0.3-0.1
		c-0.4-0.3-0.8-0.7-1.3-1.2c-0.1-0.1-0.1-0.2-0.2-0.2c-0.1-0.2-0.3-0.3-0.4-0.4c0,0-0.1-0.1-0.2-0.1c0,0-0.1,0-0.1-0.1
		c-0.2-0.2-0.4-0.3-0.7-0.3c-0.3,0-0.6,0.1-0.7,0.4C11.5,15,11.5,15.6,12,16c0,0,0,0,0.1,0c0.1,0,0.1,0.1,0.2,0.1
		c0.2,0.1,0.4,0.2,0.5,0.3c0.1,0,0.2,0.1,0.3,0.2c0.6,0.4,1.1,0.6,1.4,1c0.2,0.2,0.2,0.3,0.2,0.5v0.1l0.3,0.3
		c-0.1,0.1-0.1,0.2-0.2,0.3c-1.6,2.5-2.2,5.5-1.8,8.5l-0.4,0.1c0,0,0,0,0,0.1c-0.1,0.1-0.2,0.3-0.4,0.4c-0.5,0.2-1.1,0.2-1.7,0.3h0
		c-0.1,0-0.2,0-0.3,0c-0.2,0-0.4,0-0.6,0.1c-0.1,0-0.1,0-0.2,0c0,0-0.1,0-0.1,0c-0.6,0.1-0.9,0.7-0.8,1.2c0.1,0.4,0.5,0.7,1,0.7
		c0.1,0,0.2,0,0.3,0c0,0,0.1,0,0.1,0c0.1,0,0.1,0,0.2,0c0.2-0.1,0.4-0.1,0.6-0.2c0.1,0,0.2-0.1,0.3-0.1h0c0.6-0.2,1.2-0.4,1.7-0.5
		h0.1c0.2,0,0.3,0.1,0.4,0.2c0,0,0,0,0.1,0l0.4-0.1c0.8,2.4,2.2,4.5,4.2,6c0.4,0.4,0.9,0.6,1.4,0.9l-0.2,0.4c0,0,0,0,0,0.1
		C19,36.8,19,37,19,37.2c-0.2,0.5-0.5,1-0.8,1.5v0c-0.1,0.1-0.1,0.2-0.2,0.3c-0.1,0.2-0.2,0.3-0.4,0.5c0,0-0.1,0.1-0.1,0.2
		c0,0,0,0.1,0,0.1c-0.3,0.5-0.1,1.2,0.4,1.4c0.1,0.1,0.3,0.1,0.4,0.1c0.4,0,0.8-0.3,1-0.6c0,0,0-0.1,0-0.1c0-0.1,0.1-0.1,0.1-0.2
		c0.1-0.2,0.1-0.4,0.2-0.6l0.1-0.3c0.2-0.6,0.4-1.2,0.7-1.6c0.1-0.2,0.3-0.2,0.4-0.3c0,0,0,0,0.1,0l0.2-0.4c1.4,0.5,2.9,0.8,4.5,0.8
		c0.9,0,1.9-0.1,2.8-0.3c0.6-0.1,1.1-0.3,1.7-0.5l0.2,0.4c0,0,0,0,0.1,0c0.2,0,0.3,0.1,0.4,0.3c0.3,0.4,0.4,1,0.7,1.6v0l0.1,0.3
		c0.1,0.2,0.1,0.4,0.2,0.6c0,0.1,0.1,0.1,0.1,0.2c0,0,0,0.1,0,0.1c0.2,0.4,0.6,0.6,1,0.6c0.1,0,0.3,0,0.4-0.1
		c0.2-0.1,0.4-0.3,0.5-0.6c0.1-0.3,0.1-0.5-0.1-0.8c0,0,0,0,0-0.1c0-0.1-0.1-0.1-0.1-0.2c-0.1-0.2-0.2-0.4-0.4-0.5
		c-0.1-0.1-0.1-0.2-0.2-0.3v0c-0.4-0.5-0.7-1-0.8-1.5c-0.1-0.2,0-0.4,0-0.5c0,0,0,0,0-0.1l-0.2-0.4c1.7-1,3.1-2.4,4.2-4.1
		c0.6-0.9,1-1.9,1.3-2.9l0.4,0.1c0,0,0,0,0.1,0c0.1-0.1,0.2-0.2,0.4-0.2h0.1c0.5,0.1,1.1,0.3,1.7,0.5h0c0.1,0,0.2,0.1,0.3,0.1
		c0.2,0.1,0.4,0.2,0.6,0.2c0.1,0,0.1,0,0.2,0c0,0,0.1,0,0.1,0c0.1,0,0.2,0,0.3,0c0.5,0,0.9-0.3,1-0.7C42.5,28.9,42.1,28.4,41.6,28.2
		z M32.4,18.4l-4.2,3c-0.4,0.2-0.8,0.2-1.1-0.2c-0.1-0.1-0.1-0.2-0.2-0.4l-0.3-5.2C28.8,15.9,30.8,16.8,32.4,18.4z M24.5,24h1.6
		l1,1.2l-0.3,1.5h0l-1.4,0.7l-1.4-0.7l-0.4-1.5L24.5,24z M23.1,15.8L23.1,15.8c0.4-0.1,0.7-0.1,1-0.2l-0.3,5.1
		c0,0.4-0.4,0.8-0.9,0.8c-0.1,0-0.3,0-0.4-0.1l-4.3-3C19.6,17.1,21.2,16.2,23.1,15.8z M16.8,20.3l3.8,3.4c0.4,0.3,0.4,0.8,0.1,1.2
		c-0.1,0.1-0.2,0.2-0.4,0.3l-5,1.4C15.1,24.4,15.6,22.2,16.8,20.3z M21.9,29.3l-2,4.7c-1.8-1.2-3.2-2.9-4-5h0l5.1-0.9
		c0.4,0,0.8,0.3,0.9,0.7C21.9,29,21.9,29.1,21.9,29.3z M27.6,35.4L27.6,35.4c-0.7,0.2-1.5,0.3-2.2,0.3c-1.1,0-2.2-0.2-3.2-0.5
		l2.5-4.6c0.3-0.3,0.7-0.4,1-0.2c0.1,0.1,0.3,0.2,0.4,0.4l2.5,4.4C28.2,35.2,27.9,35.3,27.6,35.4z M33.8,30.9L33.8,30.9
		C33,32.2,32,33.2,30.8,34l-2-4.8c-0.1-0.4,0.1-0.8,0.4-1c0.1-0.1,0.3-0.1,0.4-0.1l5.1,0.9C34.6,29.7,34.2,30.3,33.8,30.9z
		 M35.3,26.6l-4.9-1.4c-0.4-0.1-0.7-0.6-0.6-1c0-0.1,0.1-0.3,0.2-0.4l3.9-3.5c0.5,0.9,1,1.9,1.2,3v0C35.4,24.4,35.4,25.5,35.3,26.6z
		"/>
</g>
</svg>
