<?xml version="1.0" encoding="utf-8"?>
<!-- Generator: Adobe Illustrator 24.2.1, SVG Export Plug-In . SVG Version: 6.00 Build 0)  -->
<svg version="1.1" id="Layer_3" xmlns="http://www.w3.org/2000/svg" xmlns:xlink="http://www.w3.org/1999/xlink" x="0px" y="0px"
	 viewBox="0 0 50 50" style="enable-background:new 0 0 50 50;" xml:space="preserve">
<style type="text/css">
	.st0{fill:#fff;}
</style>
<g>
	<path class="st0" d="M42.2,30.3v-6.2H26.7v-3.2h4.7V8.6H19v12.3h4.7v3.2H8.2v6.2H3.7v12.3H16V30.3h-4.7v-3.2h12.3v3.2H19v12.3h12.3
		V30.3h-4.7v-3.2H39v3.2h-4.7v12.3h12.3V30.3H42.2z M12.8,33.3v6.2H6.7v-6.2H12.8z M28.4,33.3v6.2h-6.2v-6.2H28.4z M22.2,18v-6.2
		h6.2V18H22.2z M43.7,39.4h-6.2v-6.2h6.2V39.4z"/>
</g>
</svg>
