<?xml version="1.0" encoding="utf-8"?>
<!-- Generator: Adobe Illustrator 24.2.1, SVG Export Plug-In . SVG Version: 6.00 Build 0)  -->
<svg version="1.1" id="Layer_3" xmlns="http://www.w3.org/2000/svg" xmlns:xlink="http://www.w3.org/1999/xlink" x="0px" y="0px"
	 viewBox="0 0 58 58" style="enable-background:new 0 0 58 58;" xml:space="preserve">
<style type="text/css">
	.st0{fill:none;}
	.st1{fill:#23669D;}
	.st2{fill:#F1594E;}
	.st3{fill:#FFFFFF;}
</style>
<g>
	<g>
		<path class="st0" d="M27.5,52.3l18.3-10.9c0,0,0.1-0.1,0.1-0.3c0,0,0-21,0-21L27.5,30.1V52.3z"/>
		<path class="st0" d="M25.4,4.3h-0.1h-0.1L6.2,15.6c0.1,0,0.1,0,0.3,0.1l18.7,10.7l19.5-10.7L25.4,4.3z"/>
		<path class="st1" d="M48,12.8L27.7,0.7C27,0.3,26.1,0,25.2,0s-1.7,0.3-2.4,0.7L2.7,12.8c-1.4,0.9-2.3,2.3-2.3,4V41
			c0,1.7,0.9,3.1,2.3,4L23,57.1c0.9,0.6,1.7,0.7,2.4,0.7c1,0,1.8-0.4,2.3-0.7L47.8,45c1.4-0.9,2.3-2.3,2.3-4V16.8
			C50.1,15.2,49.3,13.6,48,12.8z M25.2,26.4L6.5,15.8c-0.1-0.1-0.1-0.1-0.3-0.1L25.1,4.3h0.1h0.1l19.3,11.5L25.2,26.4z M46,41
			c0,0.1-0.1,0.3-0.1,0.3L27.5,52.3V30.1L46,20C46,20,46,41,46,41z"/>
	</g>
	<g>
		<polygon class="st2" points="44.6,44.7 42.9,44.7 42.7,44.8 42.6,45 42.6,46.7 42.7,46.9 42.9,47 44.6,47 44.8,46.9 44.9,46.7 
			44.9,45 44.8,44.8 		"/>
		<polygon class="st2" points="44.7,39 42.7,39 42.5,39.1 42.4,39.3 42.6,43.4 42.7,43.5 42.9,43.6 44.5,43.6 44.8,43.5 44.8,43.4 
			45,39.3 44.9,39.1 		"/>
		<path class="st2" d="M43.4,28.4c-7.9,0-14.3,6.4-14.3,14.3c0,7.9,6.4,14.3,14.3,14.3c7.9,0,14.3-6.4,14.3-14.3
			C57.7,34.8,51.3,28.4,43.4,28.4z M51.6,48.8c-0.1,0.2-0.2,0.3-0.4,0.4c-0.2,0.1-0.4,0.2-0.6,0.2H36.9c-0.2,0-0.4-0.1-0.6-0.2
			c-0.2-0.1-0.3-0.2-0.4-0.4c-0.2-0.4-0.2-0.8,0-1.1l6.9-12.6c0.1-0.2,0.2-0.3,0.4-0.4s0.4-0.2,0.6-0.2s0.4,0.1,0.6,0.2
			s0.3,0.3,0.4,0.4l6.9,12.6C51.8,48,51.8,48.4,51.6,48.8z"/>
		<path class="st3" d="M44.7,35.1c-0.1-0.2-0.2-0.3-0.4-0.4s-0.4-0.2-0.6-0.2s-0.4,0.1-0.6,0.2s-0.3,0.3-0.4,0.4l-6.9,12.6
			c-0.2,0.4-0.2,0.8,0,1.1c0.1,0.2,0.2,0.3,0.4,0.4c0.2,0.1,0.4,0.2,0.6,0.2h13.7c0.2,0,0.4-0.1,0.6-0.2c0.2-0.1,0.3-0.2,0.4-0.4
			c0.2-0.4,0.2-0.8,0-1.1L44.7,35.1z M44.9,46.7l-0.1,0.2L44.6,47h-1.7l-0.2-0.1l-0.1-0.2V45l0.1-0.2l0.2-0.1h1.7l0.2,0.1l0.1,0.2
			V46.7z M44.8,43.4l-0.1,0.1l-0.2,0.1h-1.7l-0.2-0.1l-0.1-0.1l-0.2-4.1l0.1-0.2l0.2-0.1h2l0.2,0.1l0.1,0.2L44.8,43.4z"/>
	</g>
</g>
</svg>
