<?xml version="1.0" encoding="utf-8"?>
<!-- Generator: Adobe Illustrator 24.2.1, SVG Export Plug-In . SVG Version: 6.00 Build 0)  -->
<svg version="1.1" id="Layer_2_1_" xmlns="http://www.w3.org/2000/svg" xmlns:xlink="http://www.w3.org/1999/xlink" x="0px" y="0px"
	 viewBox="0 0 50 50" style="enable-background:new 0 0 50 50;" xml:space="preserve">
<style type="text/css">
	.st0{fill:#fff;}
</style>
<g>
	<path class="st0" d="M14,20.2c1,0.5,1.7,1.5,2.4,2.4c0.7,1,1,1.9,1,3.2c0,1-0.2,1.7-0.5,2.4c-0.2,0.7-0.7,1.5-1.5,2.2
		c1,0.7,1.7,1.7,2.4,2.7c0.7,1.2,1,2.4,1,3.9h-3.2c0-1.2-0.5-2.4-1.5-3.4s-1.9-1.5-3.4-1.5s-2.4,0.5-3.4,1.5S5.8,35.5,5.8,37h-3
		c0-1.5,0.2-2.7,1-3.9c0.7-1.2,1.5-2.2,2.7-2.9c-0.8-0.5-1.3-1.2-1.5-2c-0.2-0.7-0.5-1.7-0.5-2.4c0-1.2,0.2-2.2,1-3.2
		c0.7-1,1.5-1.7,2.4-2.4c1-0.7,1.9-1,3.2-1S13,19.8,14,20.2z M8.6,23.6c-0.7,0.7-1,1.5-1,2.2s0.2,1.7,1,2.2s1.5,1,2.2,1
		s1.7-0.2,2.2-1c0.5-0.7,1-1.5,1-2.2s-0.2-1.7-1-2.2c-0.7-0.5-1.2-1-2.2-1S9.1,22.9,8.6,23.6z M20.8,10.5c1,0.5,1.5,1.2,1.9,2.2
		c0.5,1,0.7,1.7,0.7,2.7s-0.2,1.9-0.7,2.9s-1,1.5-1.9,1.9c-1,0.5-1.7,0.7-2.9,0.7c-1.2,0-1.7-0.2-2.7-0.7s-1.5-1.2-1.9-1.9
		c-0.5-0.7-1-1.9-1-2.9s0.2-1.9,0.7-2.7c0.5-0.7,1.2-1.5,1.9-1.9c0.7-0.5,1.9-1,2.9-1S19.8,10,20.8,10.5z M16.2,13.7
		c-0.2,0.5-0.5,1.2-0.5,1.7s0.2,1.2,0.7,1.7c0.5,0.5,1,0.7,1.5,0.7s1.2-0.2,1.7-0.7s0.7-1,0.7-1.7s-0.2-1.2-0.7-1.7s-1-0.7-1.7-0.7
		S16.7,13.2,16.2,13.7z M20.8,35c-0.5-0.5-1-1.2-1.5-2.2s-0.5-1.7-0.5-2.4c0-1.2,0.2-2.2,1-3.2c0.7-1,1.5-1.7,2.4-2.4
		c1-0.7,1.9-1,3.2-1c1.2,0,2.2,0.2,3.2,1c1,0.5,1.7,1.5,2.4,2.4c0.5,1,1,1.9,1,3.2c0,1-0.2,1.7-0.5,2.4c-0.2,0.7-0.7,1.5-1.5,2.2
		c0.7,0.5,1.5,1.2,1.9,1.9c1,1.5,1.7,2.9,1.7,4.9H30c0-1.2-0.5-2.4-1.5-3.4s-1.9-1.5-3.4-1.5s-2.4,0.5-3.4,1.5s-1.5,1.9-1.5,3.4H17
		c0-1.7,0.5-3.4,1.7-4.9C19.3,36.3,20,35.5,20.8,35z M23,28.2c-0.7,0.7-1,1.5-1,2.2s0.2,1.7,1,2.2s1.5,1,2.2,1s1.7-0.2,2.2-1
		c0.5-0.7,1-1.5,1-2.2s-0.2-1.7-1-2.2c-0.7-0.5-1.5-1-2.2-1S23.4,27.8,23,28.2z M35.1,10.5c1,0.5,1.5,1.2,1.9,1.9
		c0.5,0.7,0.7,1.7,0.7,2.7S37.5,17,37,17.8c-0.5,0.7-1.2,1.5-1.9,1.9S33.4,21,32.4,21s-1.9-0.2-2.7-0.7c-0.7-0.5-1.7-1.2-2.2-1.9
		c-0.5-1-0.7-1.7-0.7-2.7s0.2-1.9,0.7-2.7c0.5-1,1.2-1.5,1.9-1.9c0.7-0.5,1.7-0.7,2.7-0.7C33.2,10.3,34.1,10,35.1,10.5z M30.7,13.7
		c-0.5,0.5-0.7,1.2-0.7,1.7s0.2,1.2,0.7,1.7s1,0.7,1.7,0.7s1.2-0.2,1.7-0.7s0.7-1,0.7-1.7s-0.5-1.2-0.7-1.7S32.9,13,32.4,13
		C31.9,13,31,13.2,30.7,13.7z M32.4,33.1c0.7-1.2,1.5-2.2,2.7-2.9c-0.5-0.5-1-1.2-1.5-2.2c-0.2-0.7-0.5-1.7-0.5-2.4
		c0-1.2,0.2-2.2,1-3.2c0.5-1,1.5-1.7,2.4-2.4s1.9-1,3.2-1s2.2,0.2,3.2,1s1.7,1.5,2.4,2.4c0.7,1,1,1.9,1,3.2c0,1-0.2,1.7-0.5,2.4
		s-0.7,1.5-1.5,2.2c1.2,0.7,1.9,1.7,2.7,2.9c0.7,1.2,1,2.4,1,3.9h-3.2c0-1.2-0.5-2.4-1.5-3.4s-1.9-1.5-3.4-1.5s-2.4,0.5-3.4,1.5
		S35,35.5,35,37h-3.2C31.5,35.5,31.9,34.3,32.4,33.1z M37.3,23.6c-0.7,0.7-1,1.5-1,2.2s0.2,1.7,1,2.2c0.7,0.5,1.5,1,2.2,1
		s1.7-0.2,2.2-1c0.7-0.7,1-1.5,1-2.2s-0.2-1.7-1-2.2c-0.7-0.7-1.5-1-2.2-1C38.7,22.7,37.8,22.9,37.3,23.6z"/>
</g>
</svg>
