<?xml version="1.0" encoding="utf-8"?>
<!-- Generator: Adobe Illustrator 24.2.1, SVG Export Plug-In . SVG Version: 6.00 Build 0)  -->
<svg version="1.1" id="Layer_1" xmlns="http://www.w3.org/2000/svg" xmlns:xlink="http://www.w3.org/1999/xlink" x="0px" y="0px"
	 viewBox="0 0 50 50" style="enable-background:new 0 0 50 50;" xml:space="preserve">
<style type="text/css">
	.st0{fill:#fff;}
</style>
<g>
	<path class="st0" d="M14.9,24.6v2c1.1,0.2,2,0.7,2.9,1.1l1.3-1.3l2.5,2.5l-1.3,1.3c0.7,0.9,1.1,2,1.3,3.1h2v3.4h-2
		c-0.2,1.1-0.7,2-1.3,2.9l1.3,1.3l-2.5,2.5l-1.3-1.3c-0.9,0.4-1.8,0.9-2.9,1.1v2h-3.4v-1.8c-1.1-0.2-2.2-0.7-3.1-1.3L7,43.5L4.5,41
		l1.3-1.3c-0.7-0.9-1.1-1.8-1.1-2.9H3v-3.4h1.8c0.2-1.1,0.7-2,1.1-2.9l-1.3-1.3L7,26.7L8.4,28c0.9-0.7,2-1.1,3.1-1.3v-2h3.4V24.6z
		 M9.5,31.4c-0.9,0.9-1.6,2.2-1.6,3.6c0,1.3,0.4,2.7,1.6,3.6c0.9,0.9,2.2,1.6,3.6,1.6s2.7-0.4,3.6-1.6c0.9-0.9,1.6-2.2,1.6-3.6
		c0-1.3-0.4-2.7-1.6-3.6c-0.9-0.9-2.2-1.6-3.6-1.6S10.4,30.3,9.5,31.4z M27,4.2v2c0.9,0,2,0.4,2.7,0.9L31,5.8l2.5,2.5l-1.3,1.3
		c0.7,0.9,1.1,2,1.3,3.1h2v3.4h-2c-0.2,1.1-0.7,2-1.3,3.1l1.3,1.3L31,23.1l-1.3-1.6c-0.9,0.4-1.8,0.9-2.9,1.1v2h-3.4v-2
		c-1.3-0.2-2.2-0.7-3.1-1.1L19,22.8l-2.5-2.5l1.3-1.3c-0.4-0.9-0.9-1.8-1.1-2.9h-1.8v-3.4h1.8c0.2-1.1,0.7-2,1.1-2.9l-1.3-1.6
		L19,5.7L20.3,7c0.9-0.4,2-0.9,3.1-1.1V4.2H27z M21.4,10.7c-0.9,0.9-1.6,2.2-1.6,3.6s0.4,2.7,1.6,3.6c0.9,0.9,2.2,1.6,3.6,1.6
		s2.7-0.4,3.6-1.6c0.9-0.9,1.6-2.2,1.6-3.6s-0.4-2.5-1.3-3.6c-0.9-0.9-2.2-1.6-3.6-1.6S22.5,9.8,21.4,10.7z M38.9,24.6v2
		c1.1,0.2,2,0.7,2.9,1.1l1.3-1.3l2.5,2.5l-1.3,1.3c0.7,1.1,1.1,2,1.3,3.1h2v3.4h-2c-0.2,1.1-0.7,2-1.3,2.9l1.3,1.3l-2.5,2.5
		l-1.3-1.3c-0.9,0.7-1.8,1.1-2.9,1.1v2h-3.4v-2c-1.3-0.2-2.2-0.7-3.1-1.1L31,43.5L28.5,41l1.3-1.3c-0.7-0.9-1.1-1.8-1.1-2.9H27v-3.4
		h1.8c0.2-1.1,0.7-2,1.1-2.9l-1.3-1.3l2.5-2.5l1.3,1.3c0.9-0.7,1.8-0.9,3.1-1.1v-2.2L38.9,24.6L38.9,24.6z M33.5,31.4
		c-0.9,0.9-1.6,2.2-1.6,3.6c0,1.3,0.4,2.7,1.6,3.6c0.9,0.9,2.2,1.6,3.6,1.6c1.3,0,2.7-0.4,3.6-1.6c0.9-0.9,1.6-2.2,1.6-3.6
		c0-1.3-0.4-2.7-1.6-3.6c-0.9-0.9-2.2-1.6-3.6-1.6C35.5,29.8,34.4,30.3,33.5,31.4z"/>
</g>
</svg>
