<?xml version="1.0" encoding="utf-8"?>
<!-- Generator: Adobe Illustrator 24.2.1, SVG Export Plug-In . SVG Version: 6.00 Build 0)  -->
<svg version="1.1" id="Layer_2" xmlns="http://www.w3.org/2000/svg" xmlns:xlink="http://www.w3.org/1999/xlink" x="0px" y="0px"
	 viewBox="0 0 58 58" style="enable-background:new 0 0 58 58;" xml:space="preserve">
<style type="text/css">
	.st0{fill:#23669D;}
</style>
<g>
	<path class="st0" d="M6,16v8.6c2.4,2.5,10.1,4.9,20.4,5.2h0.3c0.3,0,0.7,0,0.9,0c0.4,0,0.8,0,1.3,0c0.4,0,0.8,0,1.3,0
		c0.3,0,0.7,0,0.9,0h0.3c10.3-0.3,18-2.7,20.4-5.2V16c-4.5,3-13.9,4.6-22.9,4.6S10.6,19.1,6,16z"/>
	<path class="st0" d="M6,40v7.6c0,0.1,0,0.3,0.1,0.4c1.1,4.5,10.7,7.8,22.8,7.8s21.7-3.3,22.8-7.8c0.1-0.1,0.1-0.3,0.1-0.4V40
		c-3.8,2.7-11.7,4.8-22.9,4.8S9.9,42.7,6,40z"/>
	<path class="st0" d="M31.4,32.8c-0.8,0-1.6,0-2.4,0c-0.8,0-1.6,0-2.4,0c-6.8-0.1-12.1-1.2-16-2.5c-1.9-0.7-3.3-1.3-4.6-2.1v8.6
		C8.6,39.5,17.3,42,28.9,42s20.4-2.5,22.9-5.3v-8.6c-1.2,0.8-2.8,1.6-4.6,2.1C43.6,31.6,38.1,32.5,31.4,32.8z"/>
	<path class="st0" d="M51.8,10.2c-1.1-4-9-7.8-22.8-7.8S7.2,6.2,6.2,10.2c0,0.1-0.1,0.3-0.1,0.4v2.1c2.7,2.8,11.3,5.2,22.9,5.2
		s20.4-2.5,23.1-5.2v-2.1C52.1,10.5,51.9,10.3,51.8,10.2z"/>
</g>
</svg>
