<?xml version="1.0" encoding="utf-8"?>
<!-- Generator: Adobe Illustrator 24.1.3, SVG Export Plug-In . SVG Version: 6.00 Build 0)  -->
<svg version="1.1" id="_x30_1" xmlns="http://www.w3.org/2000/svg" xmlns:xlink="http://www.w3.org/1999/xlink" x="0px" y="0px"
	 viewBox="0 0 22 22" style="enable-background:new 0 0 22 22;" xml:space="preserve">
<style type="text/css">
	.st0{fill:#EDFFFF;}
</style>
<g>
	<path class="st0" d="M8,6h6c1.1,0,2,0.9,2,2v8h-2V8h-2v7h-2V8H8v8H6V8C6,6.9,6.9,6,8,6 M11,1c5.5,0,10,4.5,10,10s-4.5,10-10,10
		S1,16.5,1,11S5.5,1,11,1 M11,3c-4.4,0-8,3.6-8,8s3.6,8,8,8s8-3.6,8-8S15.4,3,11,3z"/>
</g>
</svg>
