<?xml version="1.0" encoding="utf-8"?>
<!-- Generator: Adobe Illustrator 24.1.3, SVG Export Plug-In . SVG Version: 6.00 Build 0)  -->
<svg version="1.1" id="Layer_7" xmlns="http://www.w3.org/2000/svg" xmlns:xlink="http://www.w3.org/1999/xlink" x="0px" y="0px"
	 viewBox="0 0 22 22" style="enable-background:new 0 0 22 22;" xml:space="preserve">
<style type="text/css">
	.st0{fill:#EDFFFF;}
</style>
<g>
	<path class="st0" d="M15.7,3c1.4,0.8,2.5,1.9,3.3,3.3c0.8,1.5,1.3,3,1.3,4.7s-0.4,3.2-1.3,4.7c-0.8,1.4-1.9,2.5-3.3,3.3
		c-1.5,0.8-3,1.3-4.7,1.3S7.8,19.9,6.3,19c-1.4-0.8-2.5-1.9-3.3-3.3c-0.9-1.5-1.3-3-1.3-4.7S2.1,7.8,3,6.3C3.8,4.9,4.9,3.8,6.3,3
		c1.5-0.9,3-1.3,4.7-1.3S14.2,2.1,15.7,3z M7.1,4.3C5.9,5,5,5.9,4.3,7.1s-1,2.5-1,3.9s0.4,2.7,1.1,3.9C5,16.1,5.9,17,7.1,17.7
		s2.5,1.1,3.9,1.1s2.7-0.4,3.9-1.1s2.1-1.6,2.8-2.8c0.7-1.2,1.1-2.5,1.1-3.9s-0.4-2.7-1.1-3.9C17,5.9,16.1,5,14.9,4.3
		S12.4,3.2,11,3.2C9.6,3.3,8.3,3.6,7.1,4.3z M12.5,6.8c0.5,0.3,0.8,0.7,1.1,1.1c0.3,0.5,0.4,1,0.4,1.5c0,0.6-0.2,1.2-0.6,1.7
		c-0.4,0.5-0.9,0.9-1.5,1.1l-0.3,0.1v1h-1.5v-1c0-0.3,0.1-0.6,0.3-0.9c0.2-0.3,0.5-0.5,0.8-0.6l0.3-0.1c0.3-0.1,0.5-0.3,0.7-0.5
		s0.3-0.5,0.3-0.8c0-0.4-0.1-0.8-0.4-1.1C11.8,8,11.4,7.9,11,7.9c-0.4,0-0.8,0.1-1.1,0.4C9.6,8.7,9.5,9,9.5,9.5H7.9
		C7.9,8.9,8,8.4,8.3,8C8.6,7.4,9,7.1,9.5,6.8c0.5-0.3,1-0.4,1.5-0.4C11.6,6.4,12.1,6.5,12.5,6.8z M11.8,14.1v1.5h-1.5v-1.5H11.8z"/>
</g>
</svg>
