<?xml version="1.0" encoding="utf-8"?>
<!-- Generator: Adobe Illustrator 24.1.3, SVG Export Plug-In . SVG Version: 6.00 Build 0)  -->
<svg version="1.1" id="_x31_3" xmlns="http://www.w3.org/2000/svg" xmlns:xlink="http://www.w3.org/1999/xlink" x="0px" y="0px"
	 viewBox="0 0 22 22" style="enable-background:new 0 0 22 22;" xml:space="preserve">
<style type="text/css">
	.st0{fill:#2B9AF3;}
</style>
<g>
	<path class="st0" d="M1,11c0-2.8,1-5.1,2.9-7.1S8.2,1,11,1s5.1,1,7.1,2.9S21,8.2,21,11s-1,5.1-2.9,7.1S13.8,21,11,21
		s-5.1-1-7.1-2.9S1,13.8,1,11z M2.3,11c0,2.4,0.9,4.5,2.6,6.2s3.8,2.6,6.2,2.6s4.5-0.9,6.2-2.6s2.6-3.8,2.6-6.2S19,6.5,17.3,4.8
		s-3.8-2.6-6.2-2.6S6.5,3.1,4.8,4.8S2.3,8.6,2.3,11z M6.2,11.5C6.1,11.3,6,11.2,6,11s0.1-0.3,0.2-0.4c0.1-0.1,0.3-0.2,0.5-0.2h7.1
		l-2.3-2.3c-0.3-0.3-0.3-0.6,0-0.9c0-0.1,0.2-0.2,0.3-0.2c0.2,0,0.3,0.1,0.4,0.2L16,11l-3.7,3.8c-0.3,0.3-0.6,0.3-0.9,0
		c-0.3-0.3-0.3-0.6,0-0.9l2.3-2.3h-7C6.5,11.6,6.3,11.6,6.2,11.5z"/>
</g>
</svg>
